<?xml version="1.0" standalone="no"?><!DOCTYPE svg PUBLIC "-//W3C//DTD SVG 1.1//EN" "http://www.w3.org/Graphics/SVG/1.1/DTD/svg11.dtd"><svg class="icon" width="64px" height="64.00px" viewBox="0 0 1024 1024" version="1.1" xmlns="http://www.w3.org/2000/svg"><path fill="#333333" d="M218.1 1000c-2 0-4.1-0.1-6.1-0.3-32.7-3.1-58.4-32.2-58.4-66.3V93.2c0-35.6 28.9-64.5 64.5-64.5 2 0 4.1 0.1 6.1 0.3 27.5 2.6 50.1 23.7 56.5 50.6 3-1.4 6.2-2.8 9.5-4.2 35.2-14.8 73.6-22.3 114.1-22.3 58.4 0 119.3 15.8 181 46.9 50.6 25.6 99.9 38.5 146.4 38.5 85.9 0 135.3-44.8 137.4-46.7 4.7-4.3 10.8-6.7 17.2-6.7 13.9 0 25.3 11.4 25.3 25.4V589c0 11.7-7.9 21.8-19.3 24.6-7.7 1.9-77.4 18.2-158.8 18.2-83.5 0-149.2-17.2-195.2-51-29.5-21.7-64.2-32.7-103.1-32.7-66.2 0-128.1 31.5-152.6 45.6v341.7c0 35.7-29 64.6-64.5 64.6z m0-921.3c-7.9 0-14.5 6.6-14.5 14.5v840.1c0 8.5 5.9 15.9 13.1 16.6 0.5 0 1 0.1 1.4 0.1 7.9 0 14.5-6.6 14.5-14.5V580.3c-0.1-8.6 4-16.4 11.1-21.2 3.7-2.5 91.6-60.8 191.5-60.8 49.8 0 94.5 14.3 132.7 42.4 37.2 27.4 92.9 41.3 165.6 41.3 53.5 0 102.3-7.8 128-12.8V156.9c-2.7 1.4-5.5 2.9-8.4 4.3-37.2 18.1-78.1 27.3-121.4 27.3-54.4 0-111.2-14.8-168.9-43.9C508.2 117 454.9 103 404.4 103c-81.5 0-128.8 36.9-130.8 38.4-4.5 3.5-10 5.5-15.7 5.5-7.4 0-14.5-3.3-19.3-8.9-3.9-4.6-6-10.4-6-16.4V95.4c0-8.5-5.9-15.9-13.1-16.6-0.5 0-1-0.1-1.4-0.1z"  /></svg>